<?xml version="1.0" encoding="UTF-8" standalone="no"?>
<svg
   width="16"
   height="16"
   viewBox="0 0 16 16"
   version="1.1"
   xmlns="http://www.w3.org/2000/svg"
>
  <path
     d="M8 0.45 L15.55 8 L8 15.55 L0.45 8 Z"
     fill="none"
     stroke="#000000"
     stroke-width="0.35"
     stroke-linejoin="miter"
     stroke-linecap="square"
     id="path1" />
  <path
     d="M 2.3437501,10.85 V 10.42461 H 2.7726563 L 4.7484375,5.6011724 H 5.5886719 L 7.5679687,10.42461 H 8.0671874 V 10.85 H 5.6097656 V 10.42461 H 6.1230469 L 5.690625,9.3523442 H 3.7183594 L 3.2789063,10.42461 H 3.9046876 V 10.85 Z M 3.8906251,8.9269536 H 5.5183594 L 4.7097657,6.9195317 Z M 8.3238281,10.85 V 10.42461 H 8.9953125 V 6.026563 H 8.3238281 V 5.6011724 H 11.023828 V 6.026563 h -0.675 V 7.9425786 L 12.574219,6.026563 h -0.5625 V 5.6011724 h 1.958203 V 6.026563 h -0.69961 l -1.884375,1.6207031 2.562891,2.7773439 h 0.516797 V 10.85 H 12.686719 L 10.348828,8.3011723 V 10.42461 h 0.675 V 10.85 Z"
     id="text1"
     fill="#000000"
     stroke="#000000"
     stroke-width="0.075"
     aria-label="AK" />
</svg>
